<svg xmlns="http://www.w3.org/2000/svg" xmlns:xlink="http://www.w3.org/1999/xlink" viewBox="0 0 649.467 164.992" style="fill: black" height="48" >
<g>
  <path d="M213.709,27.304h57.277v16.209h-5.291c-3.695,0-6.104,0.561-7.223,1.68c-1.121,1.121-1.68,4.06-1.68,8.818v38.884
    l42.664-39.976c0-4.703-0.627-7.446-1.879-8.23c-1.252-0.783-3.882-1.176-7.89-1.176h-4.425V27.304h57.277v16.209h-4.787
    c-4.088,0-6.664,0.588-7.727,1.764c-1.064,1.176-1.596,4.088-1.596,8.734v63.492c0,4.871,0.573,7.882,1.722,9.029
    c1.147,1.148,4.157,1.721,9.028,1.721h3.359v16.209h-57.277v-16.209h3.757c4.674,0,7.583-0.629,8.724-1.889
    s1.712-4.215,1.712-8.863V78.102l-42.664,39.401c0.055,3.977,0.252,6.496,0.588,7.559c0.336,1.064,1.092,1.863,2.268,2.395
    c1.176,0.532,3.639,0.797,7.391,0.797h3.947v16.209h-57.277v-16.209h3.887c4.618,0,7.476-0.629,8.574-1.889
    c1.099-1.26,1.648-3.906,1.648-7.938v-63.66c0-4.982-0.55-8.104-1.648-9.364c-1.098-1.26-3.506-1.89-7.223-1.89h-5.238V27.304z"/>
  <path d="M380.334,56.699l1.26,6.383c5.43-2.967,11.561-4.451,18.393-4.451c10.582,0,18.49,2.212,23.726,6.635
    c5.234,4.424,7.853,9.855,7.853,16.293c0,9.126-4.061,15.537-12.178,19.232c10.525,3.359,15.789,9.994,15.789,19.904
    c0,7.951-3.584,14.236-10.75,18.855c-7.168,4.619-16.602,6.928-28.303,6.928c-18.141,0-32.418-7.643-42.832-22.928l12.262-10.834
    c7.223,9.799,16.236,14.697,27.043,14.697c6.158,0,10.189-0.84,12.094-2.52c1.902-1.68,2.855-4.031,2.855-7.055
    c0-2.352-0.756-4.492-2.268-6.424s-4.928-2.898-10.246-2.898H383.61V94.575h10.414c7.727,0,11.59-3.107,11.59-9.322
    c0-6.102-3.977-9.154-11.926-9.154c-3.527,0-7.209,0.966-11.044,2.897c-3.836,1.932-8.302,7.405-13.396,16.418l-14.529-6.803
    l14.529-31.914H380.334z"/>
  <path d="M530.286,60.646h51.107v16.209h-2.436c-4.535,0-7.336,0.393-8.398,1.176c-1.064,0.785-1.596,2.828-1.596,6.131v36.869
    c0,3.248,0.531,5.264,1.596,6.047c1.063,0.785,3.863,1.176,8.398,1.176h2.436v16.209h-48.795v-16.209h2.52
    c3.135,0,5.094-0.433,5.879-1.301c0.783-0.867,1.176-3.094,1.176-6.678V81.978l-22.865,62.484h-16.773l-23.098-62.484v38.296
    c0,3.641,0.395,5.879,1.187,6.719c0.79,0.84,2.738,1.26,5.846,1.26h2.542v16.209h-40.564v-16.209h2.436
    c4.479,0,7.265-0.391,8.356-1.176c1.092-0.783,1.638-2.799,1.638-6.047V84.162c0-3.247-0.533-5.276-1.596-6.089
    c-1.064-0.811-3.863-1.218-8.398-1.218h-2.436V60.646h51.492l15.653,40.648L530.286,60.646z"/>
  <path d="M618.094,114.563c4.311,0,7.992,1.527,11.044,4.578c3.051,3.052,4.577,6.732,4.577,11.043
    c0,4.313-1.526,7.994-4.577,11.045c-3.052,3.052-6.733,4.576-11.044,4.576c-4.367,0-8.077-1.524-11.128-4.576
    c-3.052-3.051-4.577-6.732-4.577-11.045c0-4.311,1.525-7.991,4.577-11.043C610.017,116.091,613.727,114.563,618.094,114.563z"/>
</g>
<path d="M164.87,64.565v-7.834L13.124,98.837v7.637L164.87,64.565z M133.239,72.203l3.928-6.463L13.124,14.43v8.029L133.239,72.203z
   M164.87,150.343v-8.029L43.927,91.396L40,97.661L164.87,150.343z"/>
</svg>