<svg version="1.1" xmlns="http://www.w3.org/2000/svg" xmlns:xlink="http://www.w3.org/1999/xlink" x="0px" y="0px"
	 viewBox="0 0 606.233 164.992" style="fill: black" height="48">
<path d="M164.87,64.565v-7.834L13.124,98.837v7.638L164.87,64.565z M133.239,72.203l3.929-6.463L13.124,14.43v8.029L133.239,72.203z
	 M164.87,150.344v-8.029L43.927,91.396L40,97.661L164.87,150.344z"/>
<g>
	<path d="M214.029,27.161h57.193V43.37h-5.207c-3.023,0-5.026,0.267-6.005,0.798c-0.98,0.533-1.708,1.373-2.184,2.52
		c-0.477,1.148-0.714,3.346-0.714,6.593v64.836c0,3.527,0.195,5.795,0.588,6.803c0.391,1.008,1.063,1.736,2.016,2.184
		c1.176,0.672,2.939,1.008,5.291,1.008h6.215v16.209h-57.193V128.11h4.646c3.323,0,5.492-0.237,6.505-0.714
		c1.013-0.475,1.76-1.23,2.239-2.268c0.479-1.035,0.719-3.093,0.719-6.173V53.868c0-3.639-0.24-6.032-0.719-7.181
		c-0.479-1.147-1.281-2.029-2.407-2.646c-0.79-0.447-2.705-0.672-5.745-0.672h-5.238V27.161z"/>
	<path d="M295.577,60.503h71.219v16.209l-49.971,49.887h11.338c6.047,0,10.68-0.646,13.899-1.938
		c3.219-1.291,6.06-3.314,8.524-6.067c1.68-1.854,3.611-5.198,5.795-10.03l15.201,5.707l-11.086,30.05h-79.029V128.11l49.551-49.887
		h-7.727c-4.928,0-8.721,0.492-11.38,1.475c-2.66,0.984-5.222,2.824-7.685,5.519c-1.232,1.294-3.443,4.636-6.635,10.03
		l-14.697-6.798L295.577,60.503z"/>
	<path d="M418.027,58.487v11.17c4.867-3.75,9.818-6.551,14.854-8.398s10.154-2.771,15.357-2.771c3.301,0,6.476,0.491,9.525,1.47
		c3.049,0.98,5.594,2.254,7.637,3.821c2.041,1.568,3.902,3.695,5.58,6.383c5.427-4.143,10.63-7.124,15.609-8.944
		c4.979-1.819,10.043-2.729,15.189-2.729c4.475,0,8.531,0.813,12.169,2.436c3.636,1.625,6.587,3.821,8.854,6.593
		c2.265,2.771,3.733,5.782,4.405,9.028c0.447,2.016,0.672,4.955,0.672,8.818v34.77c0,2.855,0.21,4.703,0.63,5.543
		s1.134,1.484,2.142,1.932c0.727,0.336,2.771,0.504,6.131,0.504h3.695v16.209h-48.963V128.11c3.607,0,5.883-0.181,6.826-0.546
		s1.638-0.954,2.081-1.768c0.444-0.813,0.667-2.594,0.667-5.342V89.917c0-3.532-0.239-5.875-0.717-7.024s-1.404-2.131-2.779-2.945
		c-1.376-0.813-3.02-1.22-4.929-1.22c-2.191,0-4.55,0.491-7.077,1.472c-2.527,0.982-6.263,3.127-11.205,6.435v32.895
		c0,3.254,0.222,5.301,0.666,6.142c0.443,0.841,1.221,1.485,2.331,1.935c0.665,0.28,2.858,0.449,6.577,0.505v16.209h-45.939V128.11
		c3.807-0.056,6.131-0.251,6.971-0.587s1.482-0.949,1.932-1.845c0.447-0.894,0.672-2.935,0.672-6.12V90.801
		c0-4.415-0.394-7.35-1.18-8.803c-1.236-2.18-3.426-3.27-6.572-3.27c-1.572,0-3.229,0.195-4.971,0.586
		c-1.741,0.391-3.453,1.007-5.139,1.845c-0.898,0.447-3.201,1.899-6.908,4.359l-1.938,1.259v32.781c0,3.131,0.168,5.088,0.504,5.869
		c0.336,0.782,0.993,1.426,1.974,1.928c0.979,0.504,2.673,0.755,5.081,0.755h2.268v16.209h-49.047V128.11h3.275
		c3.471,0,5.641-0.181,6.509-0.544c0.867-0.363,1.524-1.006,1.974-1.928c0.447-0.924,0.672-2.949,0.672-6.079V81.835h-12.43V65.626
		c10.27-0.963,19.754-3.342,28.452-7.139H418.027z"/>
	<path d="M574.657,114.421c4.311,0,7.991,1.526,11.044,4.577c3.051,3.053,4.577,6.733,4.577,11.044
		c0,4.312-1.526,7.993-4.577,11.044c-3.053,3.053-6.733,4.577-11.044,4.577c-4.367,0-8.077-1.524-11.128-4.577
		c-3.053-3.051-4.577-6.732-4.577-11.044c0-4.311,1.524-7.991,4.577-11.044C566.58,115.947,570.29,114.421,574.657,114.421z"/>
</g>
</svg>
