<?xml version="1.0" standalone="no"?>
<!DOCTYPE svg PUBLIC "-//W3C//DTD SVG 20010904//EN"
 "http://www.w3.org/TR/2001/REC-SVG-20010904/DTD/svg10.dtd">
<svg version="1.0" xmlns="http://www.w3.org/2000/svg"
 width="224.000000pt" height="224.000000pt" viewBox="0 0 224.000000 224.000000"
 preserveAspectRatio="xMidYMid meet">
<metadata>
Created by potrace 1.11, written by Peter Selinger 2001-2013
</metadata>
<g transform="translate(0.000000,224.000000) scale(0.100000,-0.100000)"
fill="#000000" stroke="none">
<path d="M0 1120 l0 -1120 1120 0 1120 0 0 1120 0 1120 -1120 0 -1120 0 0
-1120z m918 606 c473 -196 866 -356 873 -356 7 0 102 25 211 55 109 30 202 55
208 55 5 0 10 -25 10 -55 0 -54 0 -54 -37 -64 -21 -6 -383 -106 -806 -223
-422 -116 -764 -215 -760 -219 5 -4 366 -158 803 -342 l795 -335 3 -62 c2 -38
-1 -59 -7 -56 -5 3 -408 174 -895 380 l-885 373 -188 -52 c-103 -29 -198 -55
-211 -59 -22 -7 -23 -6 -20 50 l3 57 800 223 800 222 -45 19 c-25 11 -386 161
-802 333 l-758 314 0 58 c0 57 0 57 24 48 13 -5 411 -169 884 -364z"/>
</g>
</svg>
